<?xml version="1.0" encoding="utf-8"?>
<!-- Generator: Adobe Illustrator 15.1.0, SVG Export Plug-In . SVG Version: 6.00 Build 0)  -->
<!DOCTYPE svg PUBLIC "-//W3C//DTD SVG 1.1//EN" "http://www.w3.org/Graphics/SVG/1.1/DTD/svg11.dtd">
<svg version="1.1" id="Layer_1" xmlns="http://www.w3.org/2000/svg" xmlns:xlink="http://www.w3.org/1999/xlink" x="0px" y="0px"
	 width="24px" height="24px" viewBox="0 0 24 24" enable-background="new 0 0 24 24" xml:space="preserve">
<path fill="#606060" d="M18.191,0c-2.905,0-5.809,0.802-5.809,2.562v4.103h0.876V3.64c0.961,0.656,2.788,1.09,4.933,1.09
	c2.144,0,3.97-0.434,4.935-1.09v3.223c-0.556,0.583-2.359,1.218-4.935,1.218c-1.527,0-2.774-0.226-3.659-0.529v0.827
	C15.58,8.7,16.885,8.87,18.191,8.87c1.915,0,3.839-0.356,4.935-1.04v2.974c-0.556,0.584-2.359,1.22-4.935,1.22
	c-1.527,0-2.774-0.226-3.659-0.53v0.828c1.048,0.324,2.353,0.493,3.659,0.493c1.915,0,3.839-0.355,4.935-1.044v2.835
	c0,0.401-1.804,1.52-5.01,1.52c-1.575,0-2.771-0.254-3.584-0.56v0.887c1.043,0.341,2.35,0.505,3.659,0.505
	c2.904,0,5.809-0.801,5.809-2.563V2.562C24,0.802,21.096,0,18.191,0z M18.191,3.941c-3.207,0-4.933-0.979-4.933-1.379
	s0.891-1.715,4.933-1.732c3.763-0.016,4.935,1.332,4.935,1.732S21.396,3.941,18.191,3.941z"/>
<path fill="#616161" d="M0,6.448V24h14.802V6.448H0z M13.93,23.252H0.847V7.183H13.93V23.252z"/>
<rect x="2.831" y="9.289" fill="#616161" width="9.225" height="0.917"/>
<rect x="2.831" y="12.849" fill="#616161" width="9.225" height="0.913"/>
<rect x="2.831" y="16.459" fill="#616161" width="9.225" height="0.916"/>
<rect x="2.831" y="19.908" fill="#616161" width="9.225" height="0.916"/>
</svg>
