<svg width="24" height="24" viewBox="0 0 100 100" fill="none" xmlns="http://www.w3.org/2000/svg" preserveAspectRatio="xMinYMid meet">
<g stroke="currentColor" stroke-linecap="round" stroke-linejoin="round">
<path d="M44.880365 20.788316c0-4.670054 9.580673-8.491008 21.44927-8.491008 11.868594 0 21.449267 3.820954 21.449267 8.491008v42.455041c0 4.670055-9.580673 8.49101-21.449267 8.49101-1.263244 0-2.500396-.04574-3.703178-.126275" stroke-width="4.26763"/>
<path d="M62.225981 43.275533c1.327823.102006 2.699733.155471 4.103654.155471 11.868594 0 21.449267-3.820952 21.449267-8.491008" stroke-width="4.26763"/>
<path d="M44.880365 20.788316c0 4.670054 9.580673 8.491008 21.44927 8.491008 11.868594 0 21.449267-3.820954 21.449267-8.491008" stroke-width="4.26763"/>
<path d="M62.157293 57.421891c1.468033.114786 2.87657.160795 4.172342.160795 11.868594 0 21.449267-3.820954 21.449267-8.49101" stroke-width="4.26763"/>
<path d="M12.642047 22.236737H44.49181l13.668323 13.527015 2.256557 2.23323V87.904426H12.642047Z" stroke-width="3.96058"/>
<path d="M23.141117 45.365735H47.028438M23.141117 58.499273H52.336731M23.141117 71.632811h29.195614" stroke-width="3.96058"/>
</g>
</svg>
